<svg id="Calque_1" data-name="Calque 1" xmlns="http://www.w3.org/2000/svg" viewBox="0 0 224.76 224.88"><title>dlx</title><path d="M195.06,509V284.12H419.82V509Zm181.26-70c-6.85-10.6-13-20.28-19.34-29.83-1.5-2.26-1.64-3.9-.06-6.19,3-4.36,5.73-9,8.54-13.47,2.67-4.27,5.3-8.57,8.32-13.46-5.18,0-9.35.21-13.48-.07-3.09-.2-4.82.92-6.28,3.59-3,5.47-6.3,10.76-9.84,16.72-3.83-6.19-7.25-11.84-10.83-17.39-.72-1.13-2-2.65-3.06-2.7-5.68-.27-11.37-.12-17.85-.12,6.92,10.63,13.24,20.34,19.52,30C324.81,417,317.84,427.62,310.38,439c5.59,0,10.22.27,14.79-.14a7.45,7.45,0,0,0,4.92-2.91c4.28-6.45,8.18-13.15,12.42-20.07,4.32,7.08,8.31,13.79,12.51,20.37.76,1.19,2.34,2.55,3.61,2.62C364.21,439.15,369.82,439,376.32,439ZM239.44,354.64v84.22c8.86,0,17.43.83,25.77-.18,16.09-1.93,29.68-8.68,34.92-25.35a64.79,64.79,0,0,0,2.53-22.06c-1-21.08-11.75-33.39-32.59-36.39C260.16,353.46,249.87,354.64,239.44,354.64Z" transform="translate(-195.06 -284.12)"/><path d="M248.09,360.77c9.17,1.05,18.15,1.32,26.76,3.27,9,2,14.79,8.68,17.48,17.58a49.45,49.45,0,0,1,.17,28.54c-3.11,10.77-10.8,17.18-21.29,19.64-7.36,1.73-15.07,1.94-23.12,2.89Z" transform="translate(-195.06 -284.12)"/></svg>