<svg id="Calque_1" data-name="Calque 1" xmlns="http://www.w3.org/2000/svg" viewBox="0 0 377.22 400"><defs><style>.cls-1{fill:#176bfe;}.cls-2{fill:#0d3d8f;}.cls-3{fill:#679ae7;}</style></defs><title>rvt</title><path class="cls-1" d="M180,197H454c.28,1.93,2.15,1.78,3.33,2.5,4.92,3,8.84,6.77,9.72,12.83.54,18.27.64,36.58.8,54.85.59,67.95.18,135.91.14,203.86,0,7.11,0,7.14-7.11,7.14l-270.83,0c-3.32,0-6.65-.2-10-.3,0-1.67-.1-3.33-.1-5ZM325.15,363.72c-.06,1.66,1,2.75,2,3.82.39.24,1,.38,1.13.73,5,10.26,9.89,20.6,15,30.8,3,6,7.05,11.29,12.79,14.89,3,1.86,5.64,4.7,9.51,4.78,5.81.12,11.63.19,17.44.07,6-.12,8.13-2.9,7.2-8.77a4.78,4.78,0,0,1,.08-2.47c1.69-4,.4-8.19.78-12.27.19-2-.54-3.21-2.78-3.11-6,.26-9.36-3.29-11.92-8.15-4.8-9.12-9.42-18.35-14.68-27.2-2.53-4.26-1.73-5.93,2.32-8.37,12.83-7.74,20.11-18.93,19.58-34.44-.12-3.49,0-7,0-10.49.13-17.78-8.69-29.69-24.32-37.19-7.26-3.48-15.22-4.26-22.86-6.24a3.05,3.05,0,0,0-2.72-.93c-21,0-42,.07-62.92,0-3.42,0-3.67,1.85-3.67,4.47q0,74.42-.07,148.83c0,3.3,1.3,4.43,4.43,4.38,7.15-.11,14.31.11,21.46-.11,4.61-.14,9.29,1,13.83-.64.09-3,.25-5.94.28-8.91q.19-22.54.34-45.09c1.36.64,2.47-.22,3.72-.48,4.94-1,10.06-2.36,14.06,2.4Z" transform="translate(-118.95 -197)"/><path class="cls-2" d="M180.07,477.9c3.33.1,6.66.3,10,.3l270.83,0c7.09,0,7.1,0,7.11-7.14,0-68,.45-135.91-.14-203.86-.16-18.27-.26-36.58-.8-54.86,1.28,2,.93,4.15.94,6.27.05,12.09,0,24.18.09,36.28,0,1.66-.89,3.73,1.35,4.84a2.58,2.58,0,0,0,3.06.05l18.9,0c4.19,0,3.95,2.92,3.95,5.83q0,163.71,0,327.42c0,1.32-.21,2.65-.32,4H166c-10.79-5.47-14.36-14.37-14.13-26.22.49-24.9.09-49.81,0-74.72,1.38-2,3.56-2.88,5.5-4.09Q168.73,484.92,180.07,477.9Zm70.66,57.48c0,8.65.08,17.3,0,26,0,2.59.34,4.1,3.45,3.83a60,60,0,0,1,8.48,0c2.29.13,2.81-.95,2.76-3-.09-4.32-.2-8.65,0-13,.09-1.8-1.62-4.66,1.88-5.18,2.71-.41,5.17-.23,6.38,3.12s3,6.27,4.43,9.44c3.36,7.5,8.23,10.5,15.58,9.49,1.63-.23,3.65-.18,3.67-2.47s1.29-6.35-.73-7c-6-2-6.1-7.9-9.18-11.73-2.27-2.83-1.64-4.55,1.42-6.6,7-4.65,6.46-11.91,5.32-18.91-1-6.29-5.31-9.89-11.35-11.69-9.31-2.77-18.85-.94-28.26-1.59-3.1-.22-4,.78-3.9,3.86C250.85,518.41,250.72,526.9,250.73,535.38Zm49.42-28.82a14.87,14.87,0,0,0,.29,2.38c5.18,17.83,10.46,35.62,15.48,53.49.63,2.25,1.5,2.73,3.51,2.69,4.49-.08,9-.23,13.49,0,3.09.19,4.27-1,5.05-3.87,4-14.93,8.22-29.8,12.4-44.69,3-10.7,3-10.56-8.1-10.57-3.14,0-4.24,1.06-4.89,4-2.65,12-5.54,24-8.43,35.93-.34,1.43,0,3.43-2.59,4.14-2.74-10.48-5.52-20.85-8.16-31.26-3.47-13.68-3.43-13.7-17.45-12.53A3,3,0,0,0,300.15,506.56Zm73.1,34.08v13.49c0,11.4,0,11.29,11.25,11.06,2.89-.06,3.6-1,3.57-3.71q-.22-16.49,0-33c0-3.76-1.72-8.74.86-10.94,2.16-1.84,7-.58,10.6-.69.34,0,.67,0,1,0,5.49-.25,2.29-4.43,2.93-6.77s.19-4.1-3.13-4.06c-13.15.16-26.3.07-39.46.09-1.28,0-2.54-.23-3.07,1.66-1.76,6.3.18,9.06,6.62,9.08,1.83,0,3.68.15,5.49,0,2.59-.26,3.49.65,3.42,3.32C373.14,527,373.25,533.81,373.25,540.64Z" transform="translate(-118.95 -197)"/><path class="cls-3" d="M180.07,477.9q-11.32,7-22.65,14.07c-1.94,1.21-4.12,2.11-5.5,4.09-2.19.39-4,1.67-5.81,2.78-7.56,4.53-15.21,8.93-22.65,13.65-4,2.53-4.51,1.21-4.51-2.77q.1-135.6,0-271.21c0-3.34.85-5.42,3.92-7.17,9.11-5.17,18.06-10.62,27-16.16,9.73-6.05,19.87-11.44,29.17-18.18h1l0,275.9C180,474.57,180,476.23,180.07,477.9Z" transform="translate(-118.95 -197)"/><path class="cls-3" d="M491.39,259.78c3.48-.92,5,.41,4.74,4-.1,1.33,0,2.67,0,4q0,161.37,0,322.73c0,2.16-.07,4.33-.11,6.49h-1c.11-1.32.32-2.65.32-4q0-163.71,0-327.42C495.34,262.7,495.58,259.79,491.39,259.78Z" transform="translate(-118.95 -197)"/><path class="cls-2" d="M336.44,260.11c-21.15-.06-42.3-.06-63.45-.26-3.66,0-5.13.64-5.11,4.83q.24,73.44,0,146.9c0,3.39.7,4.62,4.39,4.54,11.48-.23,23,0,34.47,0-4.54,1.64-9.22.5-13.83.64-7.15.22-14.31,0-21.46.11-3.13.05-4.44-1.08-4.43-4.38q.12-74.42.07-148.83c0-2.62.25-4.49,3.67-4.47,21,.07,41.95,0,62.92,0A3.05,3.05,0,0,1,336.44,260.11Z" transform="translate(-118.95 -197)"/><path class="cls-2" d="M307.4,362.11c-.46-2.09.91-2.08,2.34-2.07h11.92c2.7,0,3.89,1.3,3.52,4-4-4.76-9.12-3.44-14.06-2.4C309.87,361.89,308.76,362.75,307.4,362.11Z" transform="translate(-118.95 -197)"/><path class="cls-2" d="M325.15,363.72a3.6,3.6,0,0,1,2,3.82C326.1,366.47,325.09,365.38,325.15,363.72Z" transform="translate(-118.95 -197)"/><path class="cls-3" d="M469.43,259.71a3.28,3.28,0,0,1,3.06.05A2.58,2.58,0,0,1,469.43,259.71Z" transform="translate(-118.95 -197)"/><path class="cls-1" d="M307.39,331.53c-.11-13.95-.19-27.9-.36-41.84,0-2.19.85-2.89,2.94-2.85,6,.12,12-.43,17.92.33,4.95.64,9.34,3.48,13.34,6.58q1.74,7.65,3.49,15.3c.46,6.25-.05,12.28-3.6,17.74-2.5,3.86-5.87,6.13-10.55,6.26-3.76,0-7.52.15-11.28.09C315.27,333.08,311.1,334,307.39,331.53Z" transform="translate(-118.95 -197)"/><path class="cls-2" d="M307.39,331.53c3.71,2.43,7.88,1.55,11.9,1.61,3.76.06,7.52-.05,11.28-.09-7.23,2.05-14.61.76-21.93.94C306.75,334,307.3,332.61,307.39,331.53Z" transform="translate(-118.95 -197)"/><path class="cls-3" d="M344.72,309.05q-1.75-7.65-3.49-15.3C345.22,298.21,345.46,303.52,344.72,309.05Z" transform="translate(-118.95 -197)"/><path class="cls-2" d="M265.34,525.09a5.69,5.69,0,0,1,0-1.49c.76-2.85-2.52-7.78,4.33-7.47,7.54.34,10.15,2.13,10.24,8.31.12,8.07-5.38,12.11-13.1,9.77-1.64-.49-1.45-1.56-1.47-2.66C265.31,529.4,265.34,527.24,265.34,525.09Z" transform="translate(-118.95 -197)"/></svg>